{"title":"Red.Riding.Hood.2011.BRRip.XviD-RLF","uid":6429174,"size":749632321,"categoryP":"video","categoryS":"movies","magnet":"?xt=urn:btih:351803f91a40f6b0fdbc49ff3739607b6d85e055&amp;dn=Red.Riding.Hood.2011.BRRip.XviD-RLF&amp;tr=udp%3A%2F%2Ftracker.openbittorrent.com%3A80&amp;tr=udp%3A%2F%2Fopen.demonii.com%3A1337&amp;tr=udp%3A%2F%2Ftracker.coppersurfer.tk%3A6969&amp;tr=udp%3A%2F%2Fexodus.desync.com%3A6969","seeders":0,"leechers":1,"uploader":"rlf-rls","files":-1,"time":1306583609,"description":"             Red.Riding.Hood.2011.BRRip.XviD-RLF\n             ~~~~~~~~~~~~~~~~~~~~~~~~~~~~~~~~~~~\n                            \n                          General:\n\n\n       Complete name                    : rlf-hood.avi\n       Format                           : AVI\n       Format/Info                      : Audio Video Interleave\n       File size                        : 702 MiB\n       Duration                         : 1h 40mn\n       Overall bit rate                 : 978 Kbps\n       Language                         : English\n       Subs                             : Polish, English\n       Encoder                          : Ralf\n\n                           Video:\n\n       Format                           : MPEG-4 Visual\n       Format profile                   : Advanced Simple@L5\n       Format settings, BVOP            : 2\n       Format settings, QPel            : No\n       Format settings, GMC             : No warppoints\n       Format settings, Matrix          : H.263\n       Muxing mode                      : Packed bitstream\n       Codec ID                         : XVID\n       Duration                         : 1h 40mn\n       Bit rate                         : 842 Kbps\n       Width                            : 680 pixels\n       Height                           : 334 pixels\n       Display aspect ratio             : 2.036\n       Frame rate                       : 23.976 fps\n       Chroma subsampling               : 4:2:0\n       Bit depth                        : 8 bits\n       Scan type                        : Progressive\n       Bits/(Pixel*Frame)               : 0.155\n       Stream size                      : 605 MiB (86%)\n       Writing library                  : XviD 1.2.1\n\n                           Audio:\n\n       Format                           : MPEG Audio\n       Format profile                   : Layer 3\n       Mode                             : Joint stereo\n       Mode extension                   : MS Stereo\n       Codec ID/Hint                    : MP3\n       Duration                         : 1h 40mn\n       Bit rate mode                    : Constant\n       Bit rate                         : 128 Kbps\n       Channel(s)                       : 2 channels\n       Sampling rate                    : 48.0 KHz\n       Stream size                      : 91.9 MiB (13%)\n       Alignment                        : Aligned on interleaves\n       Interleave, preload duration     : 504 ms\n\n\n\n                          MOVIE INFO:\n\n      Set in a medieval village that is haunted by a werewolf, a \n      young girl falls for an orphaned woodcutter, much to her\n                      family's displeasure.\n\n             &lt;a href=&quot; http://www.imdb.com/title/tt1486185/&quot; rel=&quot;nofollow&quot; target=&quot;_NEW&quot;&gt; http://www.imdb.com/title/tt1486185/&lt;/a&gt;\n\n\n                            SOURCE:\n\n                   Felony 720p.BluRay.x264 (THX)\n\n    \n    &lt;a href=&quot; http://www.leetleech.org/images/08945825864728768173.jpg&quot; rel=&quot;nofollow&quot; target=&quot;_NEW&quot;&gt; http://www.leetleech.org/images/08945825864728768173.jpg&lt;/a&gt;\n\n    &lt;a href=&quot; http://www.leetleech.org/images/25355344649298795987.jpg&quot; rel=&quot;nofollow&quot; target=&quot;_NEW&quot;&gt; http://www.leetleech.org/images/25355344649298795987.jpg&lt;/a&gt;\n\n    &lt;a href=&quot; http://www.leetleech.org/images/66219628516446808099.jpg&quot; rel=&quot;nofollow&quot; target=&quot;_NEW&quot;&gt; http://www.leetleech.org/images/66219628516446808099.jpg&lt;/a&gt;\n\n    &lt;a href=&quot; http://www.leetleech.org/images/61283538342050645176.jpg&quot; rel=&quot;nofollow&quot; target=&quot;_NEW&quot;&gt; http://www.leetleech.org/images/61283538342050645176.jpg&lt;/a&gt;\n\n    &lt;a href=&quot; http://www.leetleech.org/images/40636232440578688430.jpg&quot; rel=&quot;nofollow&quot; target=&quot;_NEW&quot;&gt; http://www.leetleech.org/images/40636232440578688430.jpg&lt;/a&gt;","torrent":{"xt":"urn:btih:351803f91a40f6b0fdbc49ff3739607b6d85e055","amp;dn":"Red.Riding.Hood.2011.BRRip.XviD-RLF","amp;tr":["udp%3A%2F%2Ftracker.openbittorrent.com%3A80","udp%3A%2F%2Fopen.demonii.com%3A1337","udp%3A%2F%2Ftracker.coppersurfer.tk%3A6969","udp%3A%2F%2Fexodus.desync.com%3A6969"],"infoHash":"351803f91a40f6b0fdbc49ff3739607b6d85e055","infoHashBuffer":{"type":"Buffer","data":[53,24,3,249,26,64,246,176,253,188,73,255,55,57,96,123,109,133,224,85]},"announce":[],"urlList":[]}}